<svg class="dream-suisui-svg" viewBox="0 0 24 24" aria-hidden="true" focusable="false" xmlns="http://www.w3.org/2000/svg"><path d="M11 3h2v8h8v2h-8v8h-2v-8H3v-2h8V3Z" fill="#69dbe6" stroke="#f3ce72" stroke-width=".55"/><g transform="rotate(-35 5.2 6.199999999999999)"><path d="M2.95 5.6c.2-1.4 4.3-1.4 4.5 0l-.7 3c-.12 1.35-3.36 1.35-3.5 0l-.3-3Z" fill="#2f6fb0" stroke="#f3ce72" stroke-width=".85" stroke-linejoin="round"/><path d="M4.050000000000001 5.5l.25 2.4000000000000004M5.2 5.3v2.6M6.35 5.5l-.25 2.4000000000000004" stroke="#fff4cf" stroke-width=".55" stroke-linecap="round" opacity=".95"/><path d="M3.45 7.3c1.1-.75 2.5-.75 3.5 0" fill="none" stroke="#69dbe6" stroke-width=".72" stroke-linecap="round"/><path d="M7.1 6.9c1.4.9 1.65 2 .45 3" fill="none" stroke="#d95a42" stroke-width=".75" stroke-linecap="round"/></g><circle cx="19" cy="19" r="1.15" fill="#f3ce72" stroke="#fff4cf" stroke-width=".45"/><path d="M18.4825 19h1.035M19 18.4825v1.035" stroke="#071923" stroke-width=".5" stroke-linecap="round"/></svg>
