<svg class="dream-suisui-svg" viewBox="0 0 24 24" aria-hidden="true" focusable="false" xmlns="http://www.w3.org/2000/svg"><path d="M12 2.4c2.4 3 3.5 6 3.3 9.1-.2 3.7-1.9 6.8-5.2 9.4 1-3.6.8-6.9-.5-9.9C8.5 8.2 9.3 5.3 12 2.4Z" fill="#e3bd64" stroke="#fff6d6" stroke-width=".75" stroke-linejoin="round"/><path d="M11.4 7.2c-3.2 1-5.5 3-6.9 6 2.8-.3 5.2-1.6 7.2-3.8" fill="#65d8e8" stroke="#e3bd64" stroke-width=".65" stroke-linejoin="round"/><path d="M12.7 9.1c2.5-.7 4.9-.2 7.3 1.5-2 1.7-4.4 2.3-7.1 1.9" fill="#1a6070" stroke="#e3bd64" stroke-width=".65" stroke-linejoin="round"/><path d="M3 17.3c2.7-2.1 5.5-2.1 8.2 0 2.8 2.1 5.7 2.1 8.8-.2" fill="none" stroke="#65d8e8" stroke-width="1.35" stroke-linecap="round"/><circle cx="12.4" cy="6.1" r=".55" fill="#0b2234"/></svg>
