<svg class="dream-suisui-svg" viewBox="0 0 24 24" aria-hidden="true" focusable="false" xmlns="http://www.w3.org/2000/svg"><path d="M6 5v10.2c0 2 1.4 3 3.5 3H14c2 0 3-1.2 3-3V9M6 9.5c3.1 0 5.1-1.2 6.1-3.7" fill="none" stroke="#65d8e8" stroke-width="1.45" stroke-linecap="round"/><path d="M4.55 4.3c0.58-2.03 2.32-2.03 2.9 0-.5 2.03-2.175 2.61-2.9 0Z" fill="#e3bd64" stroke="#fff6d6" stroke-width=".35"/><path d="M15.55 5.1c0.58-2.03 2.32-2.03 2.9 0-.5 2.03-2.175 2.61-2.9 0Z" fill="#e3bd64" stroke="#fff6d6" stroke-width=".35"/><path d="M15.55 18.3c0.58-2.03 2.32-2.03 2.9 0-.5 2.03-2.175 2.61-2.9 0Z" fill="#e3bd64" stroke="#fff6d6" stroke-width=".35"/></svg>
