<svg class="dream-suisui-svg" viewBox="0 0 24 24" aria-hidden="true" focusable="false" xmlns="http://www.w3.org/2000/svg"><rect x="8.4" y="3" width="7.2" height="11" rx="3.6" fill="#0c2230" stroke="#f0c86b" stroke-width=".85"/><path d="M5.8 10.6c0 3.4 2.5 5.8 6.2 5.8s6.2-2.4 6.2-5.8M12 16.4V21M8.8 21h6.4" fill="none" stroke="#68d5df" stroke-width="1.4" stroke-linecap="round"/><path d="M12 16.1 4.7 10.2c3.9-2.8 10.7-3 14.6 0L12 16.1Z" fill="#0c2230" stroke="#f0c86b" stroke-width=".85" stroke-linejoin="round"/><path d="M12 16.1 8 9.2M12 16.1V8.6M12 16.1l4-6.9" stroke="#fff3cf" stroke-width=".62" stroke-linecap="round"/><path d="M6.2 10.1c2.6-2.4 4.5-4.9 5.8-7.4 1.4 2.6 3.4 5.1 5.9 7.4-4.1-1.1-8-1.1-11.7 0Z" fill="#fff3cf" stroke="#f0c86b" stroke-width=".8" stroke-linejoin="round"/></svg>
