<svg class="dream-suisui-svg" viewBox="0 0 24 24" aria-hidden="true" focusable="false" xmlns="http://www.w3.org/2000/svg"><path d="M12 2 19.4 5v5.9c0 4.8-3 8.4-7.4 11.1-4.4-2.7-7.4-6.3-7.4-11.1V5L12 2Z" fill="#071923" stroke="#f3ce72" stroke-width="1"/><g transform="rotate(0 12 9.95)"><path d="M9.75 6.6c.2-1.4 4.3-1.4 4.5 0l-.7 8.5c-.12 1.35-3.36 1.35-3.5 0l-.3-8.5Z" fill="#2f6fb0" stroke="#f3ce72" stroke-width=".85" stroke-linejoin="round"/><path d="M10.85 6.5l.25 7.8999999999999995M12 6.3v8.1M13.15 6.5l-.25 7.8999999999999995" stroke="#fff4cf" stroke-width=".55" stroke-linecap="round" opacity=".95"/><path d="M10.25 8.3c1.1-.75 2.5-.75 3.5 0" fill="none" stroke="#69dbe6" stroke-width=".72" stroke-linecap="round"/><path d="M13.9 13.399999999999999c1.4.9 1.65 2 .45 3" fill="none" stroke="#d95a42" stroke-width=".75" stroke-linecap="round"/></g><path d="M8.4 12.4 11 15l5.1-6.1" fill="none" stroke="#69dbe6" stroke-width="1.15" stroke-linecap="round" stroke-linejoin="round"/></svg>
