<svg class="dream-xuan-svg" viewBox="0 0 24 24" aria-hidden="true" focusable="false" xmlns="http://www.w3.org/2000/svg"><path d="M12 2.2 19 5v5.8c0 4.6-2.8 8.1-7 10.8-4.2-2.7-7-6.2-7-10.8V5l7-2.8Z" fill="#143653" stroke="#d9b85f" stroke-width="1"/><path d="M7.2 12.7c2.3-2.8 4.7-4.6 7.3-5.4-.3 2.6-1.7 4.7-4.2 6.4 2.1.1 3.9.7 5.4 1.9-3.4.2-6.2-.8-8.5-2.9Z" fill="#62cfee" stroke="#f5fdff" stroke-width=".65" stroke-linejoin="round"/><path d="M14.4 7.6c1-.7 2.1-1.1 3.2-1.1-.8 1.2-1.7 2-2.8 2.5" fill="none" stroke="#d9b85f" stroke-width=".8" stroke-linecap="round"/></svg>
