<svg class="dream-xuan-svg" viewBox="0 0 24 24" aria-hidden="true" focusable="false" xmlns="http://www.w3.org/2000/svg"><path d="M12 2 19.4 5v5.9c0 4.8-3 8.4-7.4 11.1-4.4-2.7-7.4-6.3-7.4-11.1V5L12 2Z" fill="#193552" stroke="#d9b85f" stroke-width="1"/><path d="M6.7 13.4c2.2-3.2 4.8-5.3 7.8-6.2-.2 2.3-1.2 4.2-3.1 5.7 2 .1 3.8.8 5.3 2-3.8.4-7.1-.1-10-1.5Z" fill="#f5fdff" stroke="#e9b64e" stroke-width=".7" stroke-linejoin="round"/><path d="M10.8 10.1c1.4-1.8 3.1-3 5-3.6-.4 1.7-1.4 3.1-3 4.1" fill="#56c9eb"/><circle cx="15.2" cy="8.1" r=".55" fill="#143d72"/></svg>
