<svg class="dream-suisui-svg" viewBox="0 0 24 24" aria-hidden="true" focusable="false" xmlns="http://www.w3.org/2000/svg"><path d="M7.2 12.1c-2.2-.2-3.8-1.7-3.8-3.8 0-2.4 2-4.2 4.4-4.2 2.8 0 4.3 2.2 4.2 4.8M16.8 11.9c2.2.2 3.8 1.7 3.8 3.8 0 2.4-2 4.2-4.4 4.2-2.8 0-4.3-2.2-4.2-4.8" fill="none" stroke="#65d8e8" stroke-width="1.45" stroke-linecap="round"/><path d="M10.55 12c0.58-2.03 2.32-2.03 2.9 0-.5 2.03-2.175 2.61-2.9 0Z" fill="#e3bd64" stroke="#fff6d6" stroke-width=".35"/><path d="M9.4 4.2 12 1.7l2.6 2.5L12 6.1Z" fill="#e3bd64" stroke="#fff6d6" stroke-width=".55"/></svg>
