<svg class="dream-suisui-svg" viewBox="0 0 24 24" aria-hidden="true" focusable="false" xmlns="http://www.w3.org/2000/svg"><circle cx="12" cy="12" r="7.7" fill="none" stroke="#071923" stroke-width="2.1"/><path d="M12 4.25c3.5.15 6.2 2.3 7.2 5.45" fill="none" stroke="#f3ce72" stroke-width="2" stroke-linecap="round"/><path d="M19.35 11.05 21.2 8l-3.55.2" fill="#f3ce72" stroke="#fff4cf" stroke-width=".45" stroke-linejoin="round"/><g transform="rotate(0 12 10.85)"><path d="M9.75 8.6c.2-1.4 4.3-1.4 4.5 0l-.7 6.3c-.12 1.35-3.36 1.35-3.5 0l-.3-6.3Z" fill="#2f6fb0" stroke="#f3ce72" stroke-width=".85" stroke-linejoin="round"/><path d="M10.85 8.5l.25 5.7M12 8.299999999999999v5.9M13.15 8.5l-.25 5.7" stroke="#fff4cf" stroke-width=".55" stroke-linecap="round" opacity=".95"/><path d="M10.25 10.3c1.1-.75 2.5-.75 3.5 0" fill="none" stroke="#69dbe6" stroke-width=".72" stroke-linecap="round"/><path d="M13.9 13.2c1.4.9 1.65 2 .45 3" fill="none" stroke="#d95a42" stroke-width=".75" stroke-linecap="round"/></g><path d="M3 18.2c2.4-1.5 4.9-1.5 7.4 0 2.9 1.7 6 1.7 9.7-.15" fill="none" stroke="#69dbe6" stroke-width="1.05" stroke-linecap="round"/></svg>
