<svg class="dream-suisui-svg" viewBox="0 0 24 24" aria-hidden="true" focusable="false" xmlns="http://www.w3.org/2000/svg"><path d="M12 2.2 19 5v5.8c0 4.6-2.8 8.1-7 10.8-4.2-2.7-7-6.2-7-10.8V5l7-2.8Z" fill="#071923" stroke="#f3ce72" stroke-width=".95"/><g transform="rotate(0 12 10.25)"><path d="M9.75 6.8c.2-1.4 4.3-1.4 4.5 0l-.7 8.700000000000001c-.12 1.35-3.36 1.35-3.5 0l-.3-8.700000000000001Z" fill="#2f6fb0" stroke="#f3ce72" stroke-width=".85" stroke-linejoin="round"/><path d="M10.85 6.699999999999999l.25 8.1M12 6.5v8.3M13.15 6.699999999999999l-.25 8.1" stroke="#fff4cf" stroke-width=".55" stroke-linecap="round" opacity=".95"/><path d="M10.25 8.5c1.1-.75 2.5-.75 3.5 0" fill="none" stroke="#69dbe6" stroke-width=".72" stroke-linecap="round"/><path d="M13.9 13.799999999999999c1.4.9 1.65 2 .45 3" fill="none" stroke="#d95a42" stroke-width=".75" stroke-linecap="round"/></g></svg>
