<svg class="dream-suisui-svg" viewBox="0 0 24 24" aria-hidden="true" focusable="false" xmlns="http://www.w3.org/2000/svg"><circle cx="12" cy="12" r="2.1" fill="#0b2431" stroke="#e6bf67" stroke-width=".75"/><path d="M12 3.2c2.2 1.8 3.3 3.8 3.2 6.1-1.8-.7-3.2-1.9-4.2-3.6L12 3.2Z" fill="#fff5d6" stroke="#e6bf67" stroke-width=".65" stroke-linejoin="round"/><path d="M20.5 12.2c-1.8 2.2-3.8 3.2-6.1 3.1.7-1.8 1.9-3.2 3.7-4.1l2.4 1Z" fill="#62d7e5" stroke="#e6bf67" stroke-width=".65" stroke-linejoin="round"/><path d="M11.8 20.7c-2.2-1.8-3.3-3.8-3.2-6.1 1.8.7 3.2 1.9 4.2 3.6l-1 2.5Z" fill="#2f6db8" stroke="#e6bf67" stroke-width=".65" stroke-linejoin="round"/><path d="M3.4 11.8c1.8-2.2 3.9-3.3 6.2-3.1-.7 1.8-2 3.2-3.7 4.1l-2.5-1Z" fill="#e6bf67" stroke="#fff5d6" stroke-width=".65" stroke-linejoin="round"/></svg>
